{
  "name": "Happy Birthday",
  "tempo_bpm": 112.0,
  "loop_start_bar": 0,
  "loop_bars": 8,
  "master_gain": 0.78,
  "tracks": [
    {
      "id": "happy-lead",
      "name": "Birthday Lead",
      "instrument": {
        "kind": "synth",
        "waveform": "triangle"
      },
      "gain": 0.85,
      "pan": 0.0,
      "mute": false,
      "solo": false,
      "clips": [
        {
          "id": "happy-lead-clip",
          "name": "Melody",
          "start_beat": 0.0,
          "length_beats": 32.0,
          "notes": [
            {"pitch": 67, "velocity": 0.78, "start_beat": 0.0, "length_beats": 0.45},
            {"pitch": 67, "velocity": 0.78, "start_beat": 0.5, "length_beats": 0.45},
            {"pitch": 69, "velocity": 0.78, "start_beat": 1.0, "length_beats": 0.95},
            {"pitch": 67, "velocity": 0.78, "start_beat": 2.0, "length_beats": 0.95},
            {"pitch": 72, "velocity": 0.78, "start_beat": 3.0, "length_beats": 0.95},
            {"pitch": 71, "velocity": 0.78, "start_beat": 4.0, "length_beats": 1.8},
            {"pitch": 67, "velocity": 0.78, "start_beat": 8.0, "length_beats": 0.45},
            {"pitch": 67, "velocity": 0.78, "start_beat": 8.5, "length_beats": 0.45},
            {"pitch": 69, "velocity": 0.78, "start_beat": 9.0, "length_beats": 0.95},
            {"pitch": 67, "velocity": 0.78, "start_beat": 10.0, "length_beats": 0.95},
            {"pitch": 74, "velocity": 0.78, "start_beat": 11.0, "length_beats": 0.95},
            {"pitch": 72, "velocity": 0.78, "start_beat": 12.0, "length_beats": 1.8},
            {"pitch": 67, "velocity": 0.78, "start_beat": 16.0, "length_beats": 0.45},
            {"pitch": 67, "velocity": 0.78, "start_beat": 16.5, "length_beats": 0.45},
            {"pitch": 79, "velocity": 0.78, "start_beat": 17.0, "length_beats": 0.95},
            {"pitch": 76, "velocity": 0.78, "start_beat": 18.0, "length_beats": 0.95},
            {"pitch": 72, "velocity": 0.78, "start_beat": 19.0, "length_beats": 0.95},
            {"pitch": 71, "velocity": 0.78, "start_beat": 20.0, "length_beats": 0.95},
            {"pitch": 69, "velocity": 0.78, "start_beat": 21.0, "length_beats": 1.8},
            {"pitch": 77, "velocity": 0.78, "start_beat": 24.0, "length_beats": 0.45},
            {"pitch": 77, "velocity": 0.78, "start_beat": 24.5, "length_beats": 0.45},
            {"pitch": 76, "velocity": 0.78, "start_beat": 25.0, "length_beats": 0.95},
            {"pitch": 72, "velocity": 0.78, "start_beat": 26.0, "length_beats": 0.95},
            {"pitch": 74, "velocity": 0.78, "start_beat": 27.0, "length_beats": 0.95},
            {"pitch": 72, "velocity": 0.78, "start_beat": 28.0, "length_beats": 2.6}
          ]
        }
      ]
    },
    {
      "id": "happy-chords",
      "name": "Chords",
      "instrument": {
        "kind": "synth",
        "waveform": "saw"
      },
      "gain": 0.32,
      "pan": -0.18,
      "mute": false,
      "solo": false,
      "clips": [
        {
          "id": "happy-chords-clip",
          "name": "Block Chords",
          "start_beat": 0.0,
          "length_beats": 32.0,
          "notes": [
            {"pitch": 48, "velocity": 0.34, "start_beat": 0.0, "length_beats": 3.6},
            {"pitch": 52, "velocity": 0.34, "start_beat": 0.0, "length_beats": 3.6},
            {"pitch": 55, "velocity": 0.34, "start_beat": 0.0, "length_beats": 3.6},
            {"pitch": 48, "velocity": 0.34, "start_beat": 4.0, "length_beats": 3.6},
            {"pitch": 52, "velocity": 0.34, "start_beat": 4.0, "length_beats": 3.6},
            {"pitch": 55, "velocity": 0.34, "start_beat": 4.0, "length_beats": 3.6},
            {"pitch": 55, "velocity": 0.34, "start_beat": 8.0, "length_beats": 3.6},
            {"pitch": 59, "velocity": 0.34, "start_beat": 8.0, "length_beats": 3.6},
            {"pitch": 62, "velocity": 0.34, "start_beat": 8.0, "length_beats": 3.6},
            {"pitch": 48, "velocity": 0.34, "start_beat": 12.0, "length_beats": 3.6},
            {"pitch": 52, "velocity": 0.34, "start_beat": 12.0, "length_beats": 3.6},
            {"pitch": 55, "velocity": 0.34, "start_beat": 12.0, "length_beats": 3.6},
            {"pitch": 53, "velocity": 0.34, "start_beat": 16.0, "length_beats": 3.6},
            {"pitch": 57, "velocity": 0.34, "start_beat": 16.0, "length_beats": 3.6},
            {"pitch": 60, "velocity": 0.34, "start_beat": 16.0, "length_beats": 3.6},
            {"pitch": 48, "velocity": 0.34, "start_beat": 20.0, "length_beats": 3.6},
            {"pitch": 52, "velocity": 0.34, "start_beat": 20.0, "length_beats": 3.6},
            {"pitch": 55, "velocity": 0.34, "start_beat": 20.0, "length_beats": 3.6},
            {"pitch": 55, "velocity": 0.34, "start_beat": 24.0, "length_beats": 3.6},
            {"pitch": 59, "velocity": 0.34, "start_beat": 24.0, "length_beats": 3.6},
            {"pitch": 62, "velocity": 0.34, "start_beat": 24.0, "length_beats": 3.6},
            {"pitch": 48, "velocity": 0.34, "start_beat": 28.0, "length_beats": 3.6},
            {"pitch": 52, "velocity": 0.34, "start_beat": 28.0, "length_beats": 3.6},
            {"pitch": 55, "velocity": 0.34, "start_beat": 28.0, "length_beats": 3.6}
          ]
        }
      ]
    },
    {
      "id": "happy-drums",
      "name": "Drums",
      "instrument": {
        "kind": "drum_sampler"
      },
      "gain": 0.55,
      "pan": 0.0,
      "mute": false,
      "solo": false,
      "clips": [
        {
          "id": "happy-drums-clip",
          "name": "Simple Beat",
          "start_beat": 0.0,
          "length_beats": 32.0,
          "notes": [
            {"pitch": 36, "velocity": 0.7, "start_beat": 0.0, "length_beats": 0.16},
            {"pitch": 38, "velocity": 0.42, "start_beat": 2.0, "length_beats": 0.12},
            {"pitch": 36, "velocity": 0.7, "start_beat": 4.0, "length_beats": 0.16},
            {"pitch": 38, "velocity": 0.42, "start_beat": 6.0, "length_beats": 0.12},
            {"pitch": 36, "velocity": 0.7, "start_beat": 8.0, "length_beats": 0.16},
            {"pitch": 38, "velocity": 0.42, "start_beat": 10.0, "length_beats": 0.12},
            {"pitch": 36, "velocity": 0.7, "start_beat": 12.0, "length_beats": 0.16},
            {"pitch": 38, "velocity": 0.42, "start_beat": 14.0, "length_beats": 0.12},
            {"pitch": 36, "velocity": 0.7, "start_beat": 16.0, "length_beats": 0.16},
            {"pitch": 38, "velocity": 0.42, "start_beat": 18.0, "length_beats": 0.12},
            {"pitch": 36, "velocity": 0.7, "start_beat": 20.0, "length_beats": 0.16},
            {"pitch": 38, "velocity": 0.42, "start_beat": 22.0, "length_beats": 0.12},
            {"pitch": 36, "velocity": 0.7, "start_beat": 24.0, "length_beats": 0.16},
            {"pitch": 38, "velocity": 0.42, "start_beat": 26.0, "length_beats": 0.12},
            {"pitch": 36, "velocity": 0.7, "start_beat": 28.0, "length_beats": 0.16},
            {"pitch": 38, "velocity": 0.42, "start_beat": 30.0, "length_beats": 0.12}
          ]
        }
      ]
    }
  ]
}
