{
  "name": "Teen Spirit Intro Snippet",
  "tempo_bpm": 116.0,
  "loop_start_bar": 0,
  "loop_bars": 4,
  "master_gain": 0.8,
  "tracks": [
    {
      "id": "teen-guitar",
      "name": "Fuzzy Guitar",
      "instrument": {
        "kind": "synth",
        "waveform": "saw"
      },
      "gain": 0.48,
      "pan": -0.12,
      "mute": false,
      "solo": false,
      "clips": [
        {
          "id": "teen-guitar-clip",
          "name": "Intro Power Chords",
          "start_beat": 0.0,
          "length_beats": 16.0,
          "notes": [
            {"pitch": 41, "velocity": 0.82, "start_beat": 0.0, "length_beats": 0.42},
            {"pitch": 48, "velocity": 0.82, "start_beat": 0.0, "length_beats": 0.42},
            {"pitch": 53, "velocity": 0.82, "start_beat": 0.0, "length_beats": 0.42},
            {"pitch": 41, "velocity": 0.52, "start_beat": 0.75, "length_beats": 0.18},
            {"pitch": 48, "velocity": 0.52, "start_beat": 0.75, "length_beats": 0.18},
            {"pitch": 53, "velocity": 0.52, "start_beat": 0.75, "length_beats": 0.18},
            {"pitch": 41, "velocity": 0.76, "start_beat": 1.0, "length_beats": 0.48},
            {"pitch": 48, "velocity": 0.76, "start_beat": 1.0, "length_beats": 0.48},
            {"pitch": 53, "velocity": 0.76, "start_beat": 1.0, "length_beats": 0.48},

            {"pitch": 46, "velocity": 0.82, "start_beat": 2.0, "length_beats": 0.42},
            {"pitch": 53, "velocity": 0.82, "start_beat": 2.0, "length_beats": 0.42},
            {"pitch": 58, "velocity": 0.82, "start_beat": 2.0, "length_beats": 0.42},
            {"pitch": 46, "velocity": 0.52, "start_beat": 2.75, "length_beats": 0.18},
            {"pitch": 53, "velocity": 0.52, "start_beat": 2.75, "length_beats": 0.18},
            {"pitch": 58, "velocity": 0.52, "start_beat": 2.75, "length_beats": 0.18},
            {"pitch": 46, "velocity": 0.76, "start_beat": 3.0, "length_beats": 0.48},
            {"pitch": 53, "velocity": 0.76, "start_beat": 3.0, "length_beats": 0.48},
            {"pitch": 58, "velocity": 0.76, "start_beat": 3.0, "length_beats": 0.48},

            {"pitch": 44, "velocity": 0.82, "start_beat": 4.0, "length_beats": 0.42},
            {"pitch": 51, "velocity": 0.82, "start_beat": 4.0, "length_beats": 0.42},
            {"pitch": 56, "velocity": 0.82, "start_beat": 4.0, "length_beats": 0.42},
            {"pitch": 44, "velocity": 0.52, "start_beat": 4.75, "length_beats": 0.18},
            {"pitch": 51, "velocity": 0.52, "start_beat": 4.75, "length_beats": 0.18},
            {"pitch": 56, "velocity": 0.52, "start_beat": 4.75, "length_beats": 0.18},
            {"pitch": 44, "velocity": 0.76, "start_beat": 5.0, "length_beats": 0.48},
            {"pitch": 51, "velocity": 0.76, "start_beat": 5.0, "length_beats": 0.48},
            {"pitch": 56, "velocity": 0.76, "start_beat": 5.0, "length_beats": 0.48},

            {"pitch": 49, "velocity": 0.82, "start_beat": 6.0, "length_beats": 0.42},
            {"pitch": 56, "velocity": 0.82, "start_beat": 6.0, "length_beats": 0.42},
            {"pitch": 61, "velocity": 0.82, "start_beat": 6.0, "length_beats": 0.42},
            {"pitch": 49, "velocity": 0.52, "start_beat": 6.75, "length_beats": 0.18},
            {"pitch": 56, "velocity": 0.52, "start_beat": 6.75, "length_beats": 0.18},
            {"pitch": 61, "velocity": 0.52, "start_beat": 6.75, "length_beats": 0.18},
            {"pitch": 49, "velocity": 0.76, "start_beat": 7.0, "length_beats": 0.48},
            {"pitch": 56, "velocity": 0.76, "start_beat": 7.0, "length_beats": 0.48},
            {"pitch": 61, "velocity": 0.76, "start_beat": 7.0, "length_beats": 0.48},

            {"pitch": 41, "velocity": 0.82, "start_beat": 8.0, "length_beats": 0.42},
            {"pitch": 48, "velocity": 0.82, "start_beat": 8.0, "length_beats": 0.42},
            {"pitch": 53, "velocity": 0.82, "start_beat": 8.0, "length_beats": 0.42},
            {"pitch": 41, "velocity": 0.52, "start_beat": 8.75, "length_beats": 0.18},
            {"pitch": 48, "velocity": 0.52, "start_beat": 8.75, "length_beats": 0.18},
            {"pitch": 53, "velocity": 0.52, "start_beat": 8.75, "length_beats": 0.18},
            {"pitch": 41, "velocity": 0.76, "start_beat": 9.0, "length_beats": 0.48},
            {"pitch": 48, "velocity": 0.76, "start_beat": 9.0, "length_beats": 0.48},
            {"pitch": 53, "velocity": 0.76, "start_beat": 9.0, "length_beats": 0.48},

            {"pitch": 46, "velocity": 0.82, "start_beat": 10.0, "length_beats": 0.42},
            {"pitch": 53, "velocity": 0.82, "start_beat": 10.0, "length_beats": 0.42},
            {"pitch": 58, "velocity": 0.82, "start_beat": 10.0, "length_beats": 0.42},
            {"pitch": 46, "velocity": 0.52, "start_beat": 10.75, "length_beats": 0.18},
            {"pitch": 53, "velocity": 0.52, "start_beat": 10.75, "length_beats": 0.18},
            {"pitch": 58, "velocity": 0.52, "start_beat": 10.75, "length_beats": 0.18},
            {"pitch": 46, "velocity": 0.76, "start_beat": 11.0, "length_beats": 0.48},
            {"pitch": 53, "velocity": 0.76, "start_beat": 11.0, "length_beats": 0.48},
            {"pitch": 58, "velocity": 0.76, "start_beat": 11.0, "length_beats": 0.48},

            {"pitch": 44, "velocity": 0.82, "start_beat": 12.0, "length_beats": 0.42},
            {"pitch": 51, "velocity": 0.82, "start_beat": 12.0, "length_beats": 0.42},
            {"pitch": 56, "velocity": 0.82, "start_beat": 12.0, "length_beats": 0.42},
            {"pitch": 44, "velocity": 0.52, "start_beat": 12.75, "length_beats": 0.18},
            {"pitch": 51, "velocity": 0.52, "start_beat": 12.75, "length_beats": 0.18},
            {"pitch": 56, "velocity": 0.52, "start_beat": 12.75, "length_beats": 0.18},
            {"pitch": 44, "velocity": 0.76, "start_beat": 13.0, "length_beats": 0.48},
            {"pitch": 51, "velocity": 0.76, "start_beat": 13.0, "length_beats": 0.48},
            {"pitch": 56, "velocity": 0.76, "start_beat": 13.0, "length_beats": 0.48},

            {"pitch": 49, "velocity": 0.82, "start_beat": 14.0, "length_beats": 0.42},
            {"pitch": 56, "velocity": 0.82, "start_beat": 14.0, "length_beats": 0.42},
            {"pitch": 61, "velocity": 0.82, "start_beat": 14.0, "length_beats": 0.42},
            {"pitch": 49, "velocity": 0.52, "start_beat": 14.75, "length_beats": 0.18},
            {"pitch": 56, "velocity": 0.52, "start_beat": 14.75, "length_beats": 0.18},
            {"pitch": 61, "velocity": 0.52, "start_beat": 14.75, "length_beats": 0.18},
            {"pitch": 49, "velocity": 0.76, "start_beat": 15.0, "length_beats": 0.48},
            {"pitch": 56, "velocity": 0.76, "start_beat": 15.0, "length_beats": 0.48},
            {"pitch": 61, "velocity": 0.76, "start_beat": 15.0, "length_beats": 0.48}
          ]
        }
      ]
    },
    {
      "id": "teen-bass",
      "name": "Bass",
      "instrument": {
        "kind": "synth",
        "waveform": "square"
      },
      "gain": 0.52,
      "pan": 0.08,
      "mute": false,
      "solo": false,
      "clips": [
        {
          "id": "teen-bass-clip",
          "name": "Intro Roots",
          "start_beat": 0.0,
          "length_beats": 16.0,
          "notes": [
            {"pitch": 29, "velocity": 0.7, "start_beat": 0.0, "length_beats": 0.42},
            {"pitch": 29, "velocity": 0.5, "start_beat": 0.75, "length_beats": 0.16},
            {"pitch": 29, "velocity": 0.7, "start_beat": 1.0, "length_beats": 0.42},
            {"pitch": 34, "velocity": 0.7, "start_beat": 2.0, "length_beats": 0.42},
            {"pitch": 34, "velocity": 0.5, "start_beat": 2.75, "length_beats": 0.16},
            {"pitch": 34, "velocity": 0.7, "start_beat": 3.0, "length_beats": 0.42},
            {"pitch": 32, "velocity": 0.7, "start_beat": 4.0, "length_beats": 0.42},
            {"pitch": 32, "velocity": 0.5, "start_beat": 4.75, "length_beats": 0.16},
            {"pitch": 32, "velocity": 0.7, "start_beat": 5.0, "length_beats": 0.42},
            {"pitch": 37, "velocity": 0.7, "start_beat": 6.0, "length_beats": 0.42},
            {"pitch": 37, "velocity": 0.5, "start_beat": 6.75, "length_beats": 0.16},
            {"pitch": 37, "velocity": 0.7, "start_beat": 7.0, "length_beats": 0.42},
            {"pitch": 29, "velocity": 0.7, "start_beat": 8.0, "length_beats": 0.42},
            {"pitch": 29, "velocity": 0.5, "start_beat": 8.75, "length_beats": 0.16},
            {"pitch": 29, "velocity": 0.7, "start_beat": 9.0, "length_beats": 0.42},
            {"pitch": 34, "velocity": 0.7, "start_beat": 10.0, "length_beats": 0.42},
            {"pitch": 34, "velocity": 0.5, "start_beat": 10.75, "length_beats": 0.16},
            {"pitch": 34, "velocity": 0.7, "start_beat": 11.0, "length_beats": 0.42},
            {"pitch": 32, "velocity": 0.7, "start_beat": 12.0, "length_beats": 0.42},
            {"pitch": 32, "velocity": 0.5, "start_beat": 12.75, "length_beats": 0.16},
            {"pitch": 32, "velocity": 0.7, "start_beat": 13.0, "length_beats": 0.42},
            {"pitch": 37, "velocity": 0.7, "start_beat": 14.0, "length_beats": 0.42},
            {"pitch": 37, "velocity": 0.5, "start_beat": 14.75, "length_beats": 0.16},
            {"pitch": 37, "velocity": 0.7, "start_beat": 15.0, "length_beats": 0.42}
          ]
        }
      ]
    },
    {
      "id": "teen-drums",
      "name": "Drums",
      "instrument": {
        "kind": "drum_sampler"
      },
      "gain": 0.66,
      "pan": 0.0,
      "mute": false,
      "solo": false,
      "clips": [
        {
          "id": "teen-drums-clip",
          "name": "Intro Beat",
          "start_beat": 0.0,
          "length_beats": 16.0,
          "notes": [
            {"pitch": 36, "velocity": 0.9, "start_beat": 0.0, "length_beats": 0.18},
            {"pitch": 38, "velocity": 0.82, "start_beat": 1.0, "length_beats": 0.16},
            {"pitch": 36, "velocity": 0.9, "start_beat": 2.0, "length_beats": 0.18},
            {"pitch": 38, "velocity": 0.82, "start_beat": 3.0, "length_beats": 0.16},
            {"pitch": 36, "velocity": 0.9, "start_beat": 4.0, "length_beats": 0.18},
            {"pitch": 38, "velocity": 0.82, "start_beat": 5.0, "length_beats": 0.16},
            {"pitch": 36, "velocity": 0.9, "start_beat": 6.0, "length_beats": 0.18},
            {"pitch": 38, "velocity": 0.82, "start_beat": 7.0, "length_beats": 0.16},
            {"pitch": 36, "velocity": 0.9, "start_beat": 8.0, "length_beats": 0.18},
            {"pitch": 38, "velocity": 0.82, "start_beat": 9.0, "length_beats": 0.16},
            {"pitch": 36, "velocity": 0.9, "start_beat": 10.0, "length_beats": 0.18},
            {"pitch": 38, "velocity": 0.82, "start_beat": 11.0, "length_beats": 0.16},
            {"pitch": 36, "velocity": 0.9, "start_beat": 12.0, "length_beats": 0.18},
            {"pitch": 38, "velocity": 0.82, "start_beat": 13.0, "length_beats": 0.16},
            {"pitch": 36, "velocity": 0.9, "start_beat": 14.0, "length_beats": 0.18},
            {"pitch": 38, "velocity": 0.82, "start_beat": 15.0, "length_beats": 0.16},
            {"pitch": 42, "velocity": 0.36, "start_beat": 0.5, "length_beats": 0.07},
            {"pitch": 42, "velocity": 0.36, "start_beat": 1.5, "length_beats": 0.07},
            {"pitch": 42, "velocity": 0.36, "start_beat": 2.5, "length_beats": 0.07},
            {"pitch": 42, "velocity": 0.36, "start_beat": 3.5, "length_beats": 0.07},
            {"pitch": 42, "velocity": 0.36, "start_beat": 4.5, "length_beats": 0.07},
            {"pitch": 42, "velocity": 0.36, "start_beat": 5.5, "length_beats": 0.07},
            {"pitch": 42, "velocity": 0.36, "start_beat": 6.5, "length_beats": 0.07},
            {"pitch": 42, "velocity": 0.36, "start_beat": 7.5, "length_beats": 0.07},
            {"pitch": 42, "velocity": 0.36, "start_beat": 8.5, "length_beats": 0.07},
            {"pitch": 42, "velocity": 0.36, "start_beat": 9.5, "length_beats": 0.07},
            {"pitch": 42, "velocity": 0.36, "start_beat": 10.5, "length_beats": 0.07},
            {"pitch": 42, "velocity": 0.36, "start_beat": 11.5, "length_beats": 0.07},
            {"pitch": 42, "velocity": 0.36, "start_beat": 12.5, "length_beats": 0.07},
            {"pitch": 42, "velocity": 0.36, "start_beat": 13.5, "length_beats": 0.07},
            {"pitch": 42, "velocity": 0.36, "start_beat": 14.5, "length_beats": 0.07},
            {"pitch": 42, "velocity": 0.36, "start_beat": 15.5, "length_beats": 0.07}
          ]
        }
      ]
    }
  ]
}
